<?xml version="1.0" encoding="utf-8"?>
<!-- Generator: Adobe Illustrator 27.0.0, SVG Export Plug-In . SVG Version: 6.00 Build 0)  -->
<svg version="1.1" id="Layer_1" xmlns="http://www.w3.org/2000/svg" xmlns:xlink="http://www.w3.org/1999/xlink" x="0px" y="0px"
	 viewBox="0 0 448 280" style="enable-background:new 0 0 448 280;" xml:space="preserve">
<style type="text/css">
	.st0{fill:#FFFFFF;}
</style>
<path class="st0" d="M316.3,9.3l123.1,117.5c3.3,3.2,5.2,7.6,5.2,12.1s-1.9,9-5.2,12.1L316.3,268.6c-6.7,6.4-17.4,6.2-23.8-0.6
	c-6.4-6.6-6.2-17.3,0.6-23.8l92.9-88.6H23.1c-9.2,0-18.6-7.5-18.6-16.8c0-9.2,6.9-16.8,16.2-16.8H386l-92.9-88.6
	c-6.7-6.5-6.9-17.1-0.6-23.8C299,3.1,309,2.9,316.3,9.3z"/>
</svg>
