<?xml version="1.0" encoding="utf-8"?>
<!-- Generator: Adobe Illustrator 27.0.0, SVG Export Plug-In . SVG Version: 6.00 Build 0)  -->
<svg version="1.1"
	 id="svg2" xmlns:sodipodi="http://sodipodi.sourceforge.net/DTD/sodipodi-0.dtd" xmlns:rdf="http://www.w3.org/1999/02/22-rdf-syntax-ns#" xmlns:dc="http://purl.org/dc/elements/1.1/" xmlns:cc="http://creativecommons.org/ns#" xmlns:inkscape="http://www.inkscape.org/namespaces/inkscape" xmlns:svg="http://www.w3.org/2000/svg" inkscape:version="0.48.5 r10040" sodipodi:docname="atrium-logo-teal.svg"
	 xmlns="http://www.w3.org/2000/svg" xmlns:xlink="http://www.w3.org/1999/xlink" x="0px" y="0px" viewBox="0 0 290 59.5"
	 style="enable-background:new 0 0 290 59.5;" xml:space="preserve">
<style type="text/css">
	.st0{fill:#FFFFFF;}
</style>
<path id="path22" inkscape:connector-curvature="0" class="st0" d="M131.4,17.7v2.5c0,1.2-0.9,2.1-2.1,2.1h-2.5v-2.5
	c0-1.2,0.9-2.1,2.1-2.1H131.4z M154.9,42.1V25h2.3c1.1,0,2.1,0.9,2.1,2.1c0.9-1.7,3.1-2.6,5-2.6c2.3,0,4.2,1,5.1,2.8
	c1.4-2.1,3.2-2.8,5.4-2.8c3.2,0,6.2,1.9,6.2,6.5v11.1h-4.5V31.9c0-1.8-0.9-3.2-3-3.2c-2,0-3.2,1.5-3.2,3.4v10h-4.6V31.9
	c0-1.8-0.9-3.2-3-3.2c-2,0-3.2,1.5-3.2,3.4v10H154.9z M146.7,40.2c-0.9,1.6-2.9,2.3-4.7,2.3c-4.1,0-6.5-3-6.5-6.7V25h2.5
	c1.2,0,2.1,0.9,2.1,2.1v7.8c0,1.9,1,3.4,3.1,3.4c2,0,3.2-1.4,3.2-3.4V25h4.6v14c0,1.3,0.1,2.5,0.2,3.1h-4.4
	C146.7,41.7,146.7,40.9,146.7,40.2 M126.7,42.1v-15c0-1.2,0.9-2.1,2.1-2.1h2.5v17.1H126.7z M123.9,29.6c-0.5-0.1-1-0.1-1.4-0.1
	c-2.4,0-4.4,1.1-4.4,4.8v7.8h-4.6V25h4.5v2.5c1-2.3,3.4-2.7,4.9-2.7c0.4,0,0.7,0,1.1,0.1L123.9,29.6L123.9,29.6z M106.3,25h3.4v4.1
	h-3.4v7.1c0,1.5,0.7,2,2,2c0.6,0,1.2-0.1,1.4-0.1v3.8c-0.4,0.2-1.2,0.4-2.6,0.4c-3.3,0-5.4-2-5.4-5.3v-7.9h-3.1V25h0.9
	c1.8,0,2.6-1.2,2.6-2.7v-2.4h4.2V25z M83.8,32.1h6.8l-3.4-9.3L83.8,32.1z M92.2,36.5h-10l-1.5,4.2c-0.3,0.8-1.1,1.4-2,1.4h-3.6
	l9.4-24.6H90l9.4,24.6h-3.7c-0.9,0-1.7-0.6-2-1.4L92.2,36.5z M39.2,53.1V51c0-0.5,0.2-0.9,0.6-1.1L52,42.7c0.3-0.2,0.5-0.5,0.5-0.8
	v-4c0-0.6-0.3-1.1-0.8-1.4c-0.2-0.1-0.5-0.2-0.7-0.2c-0.3,0-0.5,0.1-0.8,0.2l-12.6,7.4c-0.8,0.5-1.3,1.4-1.3,2.3v11.4
	C51.1,57.2,63,45,63,30.1C63,14.9,50.7,2.6,35.5,2.6S8,14.9,8,30.1C8,45,19.9,57.2,34.7,57.6V46.2c0-1-0.5-1.8-1.3-2.3l-12.6-7.4
	c-0.2-0.1-0.5-0.2-0.8-0.2c-0.2,0-0.5,0.1-0.7,0.2c-0.5,0.3-0.8,0.8-0.8,1.4v4c0,0.3,0.2,0.7,0.5,0.8l12.2,7.2
	c0.4,0.2,0.6,0.7,0.6,1.1v2.1c0,0.8-0.8,1.4-1.6,1.3C19.1,51.9,10.7,42,10.7,30.1c0-13.7,11.1-24.8,24.8-24.8s24.8,11.1,24.8,24.8
	c0,11.9-8.4,21.8-19.5,24.2C39.9,54.5,39.2,53.9,39.2,53.1 M41,12c0-0.2-0.1-0.3-0.2-0.4L36,8.8c-0.2-0.1-0.3-0.1-0.5-0.1
	s-0.3,0-0.5,0.1l-4.8,2.8C30.1,11.7,30,11.8,30,12s0.1,0.3,0.2,0.4l4.8,2.8c0.3,0.2,0.7,0.2,1,0l4.9-2.8C40.9,12.3,41,12.2,41,12
	 M36.3,36.9v5.7l19.3-11.4c0.3-0.2,0.5-0.5,0.5-0.8v-4c0-0.6-0.3-1-0.8-1.3c-0.2-0.2-0.5-0.2-0.7-0.2c-0.3,0-0.5,0.1-0.8,0.2
	l-16.2,9.5C36.8,35.1,36.3,36,36.3,36.9 M36.3,18.5v5.7l9.3-5.4c0.3-0.2,0.5-0.5,0.5-0.8v-4c0-0.6-0.3-1-0.8-1.3
	c-0.2-0.1-0.5-0.2-0.8-0.2s-0.5,0.1-0.8,0.2l-6.1,3.6C36.8,16.6,36.3,17.5,36.3,18.5 M36.3,27.7v5.7L52,24.2
	c0.3-0.2,0.5-0.5,0.5-0.8v-4c0-0.6-0.3-1-0.8-1.3c-0.2-0.1-0.5-0.2-0.8-0.2s-0.5,0.1-0.8,0.2l-12.6,7.4
	C36.8,25.9,36.3,26.8,36.3,27.7 M33.3,34.6l-16.2-9.5c-0.2-0.2-0.4-0.2-0.7-0.2c-0.3,0-0.5,0.1-0.8,0.2c-0.5,0.3-0.8,0.8-0.8,1.3v4
	c0,0.3,0.2,0.7,0.5,0.8l19.3,11.4v-5.7C34.7,36,34.2,35.1,33.3,34.6 M33.3,16.1l-6.1-3.6c-0.2-0.1-0.5-0.2-0.8-0.2s-0.5,0.1-0.8,0.2
	c-0.5,0.3-0.8,0.8-0.8,1.3v4c0,0.3,0.2,0.7,0.5,0.8l9.3,5.4v-5.7C34.7,17.5,34.2,16.6,33.3,16.1 M33.3,25.4L20.7,18
	c-0.2-0.1-0.5-0.2-0.8-0.2s-0.5,0.1-0.8,0.2c-0.5,0.3-0.8,0.8-0.8,1.3v4c0,0.3,0.2,0.7,0.5,0.8l15.7,9.3v-5.7
	C34.7,26.8,34.2,25.9,33.3,25.4 M275.6,27.3c-2.7,0-4.5,2-4.6,5.1v9.7h-2.4V18.5c0-0.6,0.5-1.1,1.1-1.1h1.3v10.7
	c0.4-0.3,1.7-2.9,5.8-2.9c3.6,0,5.7,2.4,5.7,6.3V42h-2.4v-9.9C280.2,29,278.5,27.3,275.6,27.3 M258.4,37.8v-10h-3.3v-2h0.4
	c2,0,3.2-1.2,3.2-3.2v-2.3h2.1v5.5h3.8v2h-3.8v9.5c0,1.9,1,2.9,2.9,2.9c0.2,0,0.5,0,0.8-0.1V42c-0.4,0.1-1,0.2-1.8,0.2
	C260,42.2,258.4,40.6,258.4,37.8 M250.3,17.5h1.3v24.6h-2.4V18.5C249.2,18,249.7,17.5,250.3,17.5 M236.4,40.8c-2.1,0-3.3-1.5-3.3-3
	c0-1.7,1.1-2.8,3-3.1l5.9-0.9v1.4C242,38.8,240,40.8,236.4,40.8 M242.1,39.5v1.2c0,0.4,0.1,1,0.1,1.4h2.3c-0.1-0.5-0.1-1.3-0.1-2.3
	v-8.7c0-3.7-2.4-5.8-6.7-5.8c-3.4,0-6,1.9-6.5,4.7l2.3,0.5c0.4-2.1,2.1-3.4,4.4-3.4c3.1,0,4.3,1.9,4.3,3.6c0,0.6-0.2,1.6-1.8,1.8
	l-4.7,0.7c-1.5,0.2-4.8,1.1-4.8,4.8c0,2.3,1.9,4.7,5.3,4.7C239.9,42.6,241.3,40.6,242.1,39.5 M214.5,32.1c0.2-2.4,2-4.9,5.2-4.9
	c3.1,0,5.2,1.9,5.3,4.9v0.5h-10.6L214.5,32.1z M225.3,37.3c-0.9,2.2-2.7,3.4-5.2,3.4c-3.3,0-5.7-2.4-5.7-5.8v-0.5h13.1
	c0-0.2,0-0.4,0-0.6c0-5.4-2.9-8.6-7.8-8.6c-4.4,0-7.8,3.8-7.8,8.7c0,6,4.3,8.8,8.2,8.8c3.3,0,6-1.8,7.1-4.7
	C227.3,38,225.3,37.3,225.3,37.3z M205.9,42.1V30.7h-13.8v11.4h-2.5V17.5h1.5c0.6,0,1.1,0.5,1.1,1.1v9.9H206v-9.9
	c0-0.6,0.5-1.1,1.1-1.1h1.5v24.6C208.5,42.1,205.9,42.1,205.9,42.1z"/>
</svg>
