<?xml version="1.0" encoding="UTF-8"?><svg id="Artwork" xmlns="http://www.w3.org/2000/svg" viewBox="0 0 435.22 72"><path d="M117.84,8.64h4.65l-6.47,23.4h-4.69l-5.35-16.67-5.35,16.67h-4.75l-6.5-23.4h4.82l4.29,16.11,5.18-16.11h4.72l5.21,16.17,4.22-16.17Zm9.83,14.06l3.99-.59c.92-.13,1.22-.59,1.22-1.16,0-1.16-.89-2.11-2.74-2.11s-2.97,1.22-3.1,2.64l-3.89-.82c.26-2.54,2.61-5.35,6.96-5.35,5.15,0,7.06,2.9,7.06,6.17v7.99c0,.86,.1,2.01,.2,2.57h-4.03c-.1-.43-.16-1.32-.16-1.95-.83,1.29-2.38,2.41-4.79,2.41-3.47,0-5.58-2.34-5.58-4.88,0-2.9,2.15-4.52,4.85-4.92Zm5.21,2.77v-.73l-3.66,.56c-1.12,.16-2.01,.79-2.01,2.05,0,.96,.69,1.88,2.11,1.88,1.85,0,3.56-.89,3.56-3.76Zm17.34-2.84l6.63,9.41h-5.38l-4.29-6.2-1.82,1.91v4.29h-4.39V8.15h4.39v13.7l5.61-6.04h5.74l-6.5,6.83Zm22.58,4.75c-.83,2.81-3.4,5.15-7.39,5.15-4.46,0-8.38-3.2-8.38-8.68,0-5.18,3.83-8.55,7.99-8.55,5.02,0,8.02,3.2,8.02,8.42,0,.63-.07,1.29-.07,1.35h-11.62c.1,2.15,1.91,3.7,4.09,3.7,2.05,0,3.17-1.02,3.7-2.48l3.66,1.09Zm-4.09-5.31c-.07-1.62-1.12-3.2-3.63-3.2-2.28,0-3.53,1.72-3.63,3.2h7.26Zm16.27,9.97V8.64h14.79v4.32h-10.23v5.78h9.11v4.19h-9.08v9.11h-4.59Zm33.2-8.12c0,4.98-3.66,8.61-8.51,8.61s-8.51-3.63-8.51-8.61,3.66-8.61,8.51-8.61,8.51,3.6,8.51,8.61Zm-4.39,0c0-3.07-1.98-4.62-4.13-4.62s-4.13,1.55-4.13,4.62,1.98,4.62,4.13,4.62,4.13-1.55,4.13-4.62Zm17.27-3.76c-.5-.1-.92-.13-1.32-.13-2.24,0-4.19,1.09-4.19,4.59v7.43h-4.39V15.8h4.26v2.41c.99-2.15,3.23-2.54,4.62-2.54,.36,0,.69,.03,1.02,.07v4.42Zm17.17,7.23c-.83,2.81-3.4,5.15-7.39,5.15-4.46,0-8.38-3.2-8.38-8.68,0-5.18,3.83-8.55,7.99-8.55,5.02,0,8.02,3.2,8.02,8.42,0,.63-.07,1.29-.07,1.35h-11.62c.1,2.15,1.91,3.7,4.09,3.7,2.05,0,3.17-1.02,3.7-2.48l3.66,1.09Zm-4.09-5.31c-.07-1.62-1.12-3.2-3.63-3.2-2.28,0-3.53,1.72-3.63,3.2h7.26Zm9.85,4.62c.1,1.29,1.06,2.48,2.97,2.48,1.45,0,2.15-.76,2.15-1.62,0-.73-.5-1.32-1.75-1.58l-2.14-.5c-3.14-.69-4.55-2.57-4.55-4.85,0-2.9,2.57-5.31,6.07-5.31,4.62,0,6.17,2.94,6.37,4.69l-3.66,.82c-.13-.96-.83-2.18-2.67-2.18-1.16,0-2.08,.69-2.08,1.62,0,.79,.59,1.29,1.49,1.45l2.31,.5c3.2,.66,4.82,2.61,4.82,4.98,0,2.64-2.05,5.35-6.3,5.35-4.88,0-6.57-3.17-6.77-5.02l3.76-.83Zm18.13-10.89h3.27v3.89h-3.27v6.8c0,1.42,.66,1.88,1.91,1.88,.53,0,1.12-.07,1.35-.13v3.63c-.4,.17-1.19,.4-2.48,.4-3.17,0-5.15-1.88-5.15-5.02v-7.56h-2.94v-3.89h.83c1.72,0,2.51-1.12,2.51-2.57v-2.28h3.96v4.85Zm15.15,7.95V8.64h4.55v14.79c0,3.07,1.72,4.69,4.42,4.69s4.46-1.62,4.46-4.69V8.64h4.55v15.12c0,5.74-3.99,8.81-9.01,8.81s-8.98-3.07-8.98-8.81Zm26.52,8.28h-4.39V15.8h4.26v2.01c.99-1.68,2.94-2.44,4.69-2.44,4.03,0,5.87,2.87,5.87,6.44v10.23h-4.39v-9.47c0-1.82-.89-3.23-3-3.23-1.91,0-3.04,1.49-3.04,3.37v9.34Zm16.34-24.29c1.52,0,2.71,1.22,2.71,2.74s-1.19,2.67-2.71,2.67-2.71-1.22-2.71-2.67,1.22-2.74,2.71-2.74Zm-2.18,24.29V15.8h4.39v16.24h-4.39Zm17.51,0h-4.39l-6.63-16.24h4.82l4.03,10.89,3.86-10.89h4.62l-6.3,16.24Zm22.5-4.65c-.83,2.81-3.4,5.15-7.39,5.15-4.46,0-8.38-3.2-8.38-8.68,0-5.18,3.83-8.55,7.99-8.55,5.02,0,8.02,3.2,8.02,8.42,0,.63-.07,1.29-.07,1.35h-11.62c.1,2.15,1.91,3.7,4.09,3.7,2.05,0,3.17-1.02,3.7-2.48l3.66,1.09Zm-4.09-5.31c-.07-1.62-1.12-3.2-3.63-3.2-2.28,0-3.53,1.72-3.63,3.2h7.26Zm17.26-1.91c-.5-.1-.92-.13-1.32-.13-2.24,0-4.19,1.09-4.19,4.59v7.43h-4.39V15.8h4.26v2.41c.99-2.15,3.23-2.54,4.62-2.54,.36,0,.69,.03,1.02,.07v4.42Zm5.15,6.53c.1,1.29,1.06,2.48,2.97,2.48,1.45,0,2.15-.76,2.15-1.62,0-.73-.5-1.32-1.75-1.58l-2.14-.5c-3.14-.69-4.55-2.57-4.55-4.85,0-2.9,2.57-5.31,6.07-5.31,4.62,0,6.17,2.94,6.37,4.69l-3.66,.82c-.13-.96-.82-2.18-2.67-2.18-1.16,0-2.08,.69-2.08,1.62,0,.79,.59,1.29,1.49,1.45l2.31,.5c3.2,.66,4.82,2.61,4.82,4.98,0,2.64-2.05,5.35-6.3,5.35-4.88,0-6.57-3.17-6.77-5.02l3.76-.83Zm14.52-18.94c1.52,0,2.71,1.22,2.71,2.74s-1.19,2.67-2.71,2.67-2.71-1.22-2.71-2.67,1.22-2.74,2.71-2.74Zm-2.18,24.29V15.8h4.39v16.24h-4.39Zm13.84-16.24h3.27v3.89h-3.27v6.8c0,1.42,.66,1.88,1.91,1.88,.53,0,1.12-.07,1.35-.13v3.63c-.4,.17-1.19,.4-2.48,.4-3.17,0-5.15-1.88-5.15-5.02v-7.56h-2.94v-3.89h.82c1.72,0,2.51-1.12,2.51-2.57v-2.28h3.96v4.85Zm7.91,22.64l3.83-8.45-6.9-14.19h4.92l4.32,9.5,3.99-9.5h4.69l-10.2,22.64h-4.65ZM103.32,50.03c-.23-1.29-1.29-3.3-4.26-3.3-2.21,0-3.66,1.42-3.66,2.97,0,1.29,.83,2.31,2.54,2.64l3.27,.63c4.26,.82,6.53,3.6,6.53,6.9,0,3.6-3,7.23-8.45,7.23-6.2,0-8.94-3.99-9.31-7.33l4.22-1.12c.2,2.31,1.82,4.39,5.12,4.39,2.44,0,3.8-1.22,3.8-2.87,0-1.35-1.02-2.41-2.84-2.77l-3.27-.66c-3.73-.76-6.14-3.17-6.14-6.7,0-4.16,3.73-7.33,8.15-7.33,5.68,0,7.85,3.43,8.38,6.07l-4.09,1.25Zm10.9,8.45c0,2.94,1.91,4.59,4.16,4.59s3.37-1.49,3.73-2.74l3.86,1.29c-.73,2.71-3.27,5.48-7.59,5.48-4.79,0-8.55-3.63-8.55-8.61s3.7-8.61,8.42-8.61c4.42,0,6.93,2.74,7.62,5.48l-3.93,1.32c-.4-1.35-1.42-2.74-3.6-2.74s-4.13,1.62-4.13,4.55Zm18.89,8.12h-4.39v-23.89h4.39v9.01c1.06-1.25,2.84-1.78,4.39-1.78,4.13,0,6.04,2.87,6.04,6.44v10.23h-4.39v-9.47c0-1.82-.89-3.23-3-3.23-1.85,0-2.94,1.39-3.04,3.17v9.54Zm30.27-8.12c0,4.98-3.66,8.61-8.51,8.61s-8.51-3.63-8.51-8.61,3.66-8.61,8.51-8.61,8.51,3.6,8.51,8.61Zm-4.39,0c0-3.07-1.98-4.62-4.13-4.62s-4.13,1.55-4.13,4.62,1.98,4.62,4.13,4.62,4.13-1.55,4.13-4.62Zm23.35,0c0,4.98-3.66,8.61-8.51,8.61s-8.51-3.63-8.51-8.61,3.66-8.61,8.51-8.61,8.51,3.6,8.51,8.61Zm-4.39,0c0-3.07-1.98-4.62-4.13-4.62s-4.13,1.55-4.13,4.62,1.98,4.62,4.13,4.62,4.13-1.55,4.13-4.62Zm7.41,8.12v-23.89h4.39v23.89h-4.39Zm33.04-8.12c0,4.98-3.66,8.61-8.51,8.61s-8.51-3.63-8.51-8.61,3.66-8.61,8.51-8.61,8.51,3.6,8.51,8.61Zm-4.39,0c0-3.07-1.98-4.62-4.13-4.62s-4.13,1.55-4.13,4.62,1.98,4.62,4.13,4.62,4.13-1.55,4.13-4.62Zm12.66-9.9v1.78h3.66v3.76h-3.66v12.47h-4.42v-12.47h-2.71v-3.76h2.71v-1.85c0-3.66,2.31-6.04,5.91-6.04,.92,0,1.82,.16,2.18,.33v3.7c-.23-.07-.66-.17-1.39-.17-.99,0-2.28,.43-2.28,2.24Zm36.6,18.02v-16.4l-6.73,16.4h-3.8l-6.73-16.27v16.27h-4.36v-23.4h6.01l7.03,16.9,6.86-16.9h6.2v23.4h-4.49Zm23.74-4.65c-.83,2.81-3.4,5.15-7.39,5.15-4.46,0-8.38-3.2-8.38-8.68,0-5.18,3.83-8.55,7.99-8.55,5.02,0,8.02,3.2,8.02,8.42,0,.63-.07,1.29-.07,1.35h-11.62c.1,2.15,1.91,3.7,4.09,3.7,2.05,0,3.17-1.02,3.7-2.48l3.66,1.09Zm-4.09-5.31c-.07-1.62-1.12-3.2-3.63-3.2-2.28,0-3.53,1.72-3.63,3.2h7.26Zm23.03,7.03c0,1.09,.07,2.28,.13,2.94h-4.19c-.07-.33-.17-1.12-.17-1.88-.73,1.29-2.38,2.28-4.55,2.28-4.62,0-7.92-3.63-7.92-8.55s3.2-8.48,7.79-8.48c2.81,0,4.13,1.15,4.59,2.01v-9.27h4.32v20.96Zm-8.25-.59c2.24,0,3.99-1.72,3.99-4.65s-1.75-4.52-3.99-4.52-4.03,1.65-4.03,4.55,1.72,4.62,4.03,4.62Zm14.47-20.76c1.52,0,2.71,1.22,2.71,2.74s-1.19,2.67-2.71,2.67-2.71-1.22-2.71-2.67,1.22-2.74,2.71-2.74Zm-2.18,24.29v-16.24h4.39v16.24h-4.39Zm11.66-8.12c0,2.94,1.91,4.59,4.16,4.59s3.37-1.49,3.73-2.74l3.86,1.29c-.73,2.71-3.27,5.48-7.59,5.48-4.79,0-8.55-3.63-8.55-8.61s3.7-8.61,8.42-8.61c4.42,0,6.93,2.74,7.62,5.48l-3.93,1.32c-.4-1.35-1.42-2.74-3.6-2.74s-4.13,1.62-4.13,4.55Zm16.6-16.17c1.52,0,2.71,1.22,2.71,2.74s-1.19,2.67-2.71,2.67-2.71-1.22-2.71-2.67,1.22-2.74,2.71-2.74Zm-2.18,24.29v-16.24h4.39v16.24h-4.39Zm12.76,0h-4.39v-16.24h4.26v2.01c.99-1.68,2.94-2.44,4.69-2.44,4.03,0,5.87,2.87,5.87,6.44v10.23h-4.39v-9.47c0-1.82-.89-3.23-3-3.23-1.91,0-3.04,1.49-3.04,3.37v9.34Zm29.02-4.65c-.83,2.81-3.4,5.15-7.39,5.15-4.46,0-8.38-3.2-8.38-8.68,0-5.18,3.83-8.55,7.99-8.55,5.02,0,8.02,3.2,8.02,8.42,0,.63-.07,1.29-.07,1.35h-11.62c.1,2.15,1.91,3.7,4.09,3.7,2.05,0,3.17-1.02,3.7-2.48l3.66,1.09Zm-4.09-5.31c-.07-1.62-1.12-3.2-3.63-3.2-2.28,0-3.53,1.72-3.63,3.2h7.26ZM36.07,72c20.74-7.33,36.05-27,36.05-55.13,0-8.72,0-12.89,0-12.89C72.12,3.98,54.26,0,36.07,0S0,3.98,0,3.98v12.89c0,28.13,15.32,47.8,36.07,55.13Zm-10.2-10.53c-.05-.04-.1-.08-.15-.11-1.55-1.1-3.03-2.3-4.44-3.59-.02-.02-.05-.04-.07-.06,.07-2.58-.08-5.21-.47-7.85-1.7-11.45-7.61-21.2-15.82-27.79-.13-1.71-.2-3.45-.2-5.21v-.8c1.71,1.15,3.36,2.43,4.92,3.81,6.84,6.06,11.81,14,14.36,22.82,2.04-6.76,5.13-13.12,9.13-18.83-5.82-7.39-13.27-13.28-21.66-17.13,2.43-.36,5.17-.73,8.11-1.05,3.28,1.97,6.41,4.27,9.33,6.85,2.59,2.29,4.98,4.78,7.15,7.45v7.94c-4.8,7.25-8.14,15.7-9.52,24.95-.43,2.89-.65,5.76-.68,8.59ZM36.07,4.72c5.7,0,11.39,.41,16.49,.96-3.28,1.97-6.41,4.26-9.33,6.85-2.59,2.29-4.98,4.78-7.16,7.45V4.72Zm24.6,2.01c2.68,.4,4.98,.8,6.73,1.12,0,1.97,0,4.71,0,8.24-1.7,1.14-3.34,2.41-4.89,3.79-6.84,6.06-11.81,14-14.36,22.82-2.04-6.76-5.13-13.12-9.13-18.83,5.83-7.39,13.27-13.27,21.65-17.13Zm-9.74,50.95c-.07-2.57,.08-5.19,.47-7.82,1.7-11.44,7.59-21.17,15.79-27.76-.79,10.35-3.94,19.76-9.22,27.46-2.06,2.99-4.42,5.71-7.04,8.12Zm-14.86-29.76c4.8,7.25,8.15,15.7,9.52,24.95,.43,2.88,.65,5.74,.68,8.57-3.14,2.22-6.55,4.07-10.2,5.51V27.93Z" style="fill:#fff;"/></svg>