<svg version="1.1" id="Layer_1" xmlns="http://www.w3.org/2000/svg" x="0" y="0" viewBox="0 0 300.2 28.3" style="enable-background:new 0 0 300.2 28.3" xml:space="preserve"><style>.st0,.st1{fill:#fff}.st1{stroke:#fff;stroke-width:.553;stroke-miterlimit:10}</style><g id="Aurora_horizontal_no_tagline" transform="translate(150.09 14.133)"><g id="Group_2689" transform="translate(-150.09 -14.133)"><path id="Path_402" class="st0" d="M28.7 10.7c-.8-1.3-1.6-2.5-2.5-3.7-1.1-1.5-2.3-2.9-3.8-4.1C20.3 1.1 17.5.1 14.7 0 7.1 0-.1 5.5 0 14c0 3.1 1 6 2.8 8.5-.6-2-.8-4.1-.4-6.1.4-2.3 1.8-4.3 3.9-5.3 2.8-1.3 6.1-.9 8.5.9 2.1 1.6 4 3.4 5.7 5.5-1.5-1.9-2.9-3.6-4.2-5-1.3-1.5-3-2.6-4.8-3.3-1.5-.5-3-.8-4.5-.8 3.5-1.2 6.7.3 9.2 2.4 2 1.7 3.9 3.6 5.6 5.6-1.3-1.8-2.7-3.5-4.2-5.1-1.5-1.5-3.1-2.8-4.9-3.8-1.4-.7-3-1.2-4.6-1.3 3.2-.7 6.6.7 9.6 3.2 2 1.8 3.8 3.7 5.5 5.8-1.4-1.8-2.8-3.6-4-4.9-1.4-1.7-3.1-3.1-5-4.3-1.3-.9-2.8-1.4-4.3-1.6 3.2-.1 5.9.9 9 3.7 2 1.9 3.9 3.8 5.7 5.9-1.4-1.8-2.3-2.9-3.3-4.1-1.2-1.4-2.6-2.8-4-4-1.4-1.2-3-2.2-4.7-2.8 3.4.6 5.8 1.9 9.2 5.3 1 .9 2.4 2.5 4.2 4.6-1.3-1.8-2.2-2.9-3.1-3.9-2-2.6-4.5-4.9-7.3-6.7 3 .7 5.2 2.5 7.4 4.7 1.2 1.2 2.4 2.5 4.4 4.8-1.4-1.9-2.2-3-3-3.8C22.7 6 20.9 4 18.8 2.2c2.4 1 4.6 2.6 6.3 4.5 1.1 1 1.9 2 3.6 4"/><path id="Path_403" class="st0" d="M18.4 17.2c-1.6 1.2-3.5 1.8-5.5 1.8-1.4 0-2.8-.3-4.1-.9-1.8-.8-3.3-2-4.5-3.5-1.6 3.3-1.2 7.2 1.2 10 2.4 2.9 6.7 4.1 10.7 3.6 2.9-.4 5.5-1.7 7.6-3.7-.9-1-4.7-6.2-5.4-7.3"/><path id="Path_404" class="st0" d="M20.4 17.6c.8 1.3 1.6 2.5 2.5 3.7 1.1 1.5 2.3 2.9 3.8 4.1 2.2 1.8 4.9 2.8 7.7 2.9 7.6 0 14.8-5.5 14.8-14 0-3.1-1-6-2.8-8.5.6 2 .8 4.1.4 6.1-.4 2.3-1.8 4.3-3.9 5.3-2.8 1.3-6.1.9-8.5-.9-2.1-1.6-4-3.4-5.7-5.5 1.5 1.9 2.9 3.6 4.2 5 1.3 1.5 3 2.6 4.8 3.3 1.4.5 2.9.8 4.4.8-3.5 1.2-6.7-.3-9.2-2.4-2-1.7-3.9-3.6-5.6-5.6 1.3 1.8 2.7 3.5 4.2 5.1 1.4 1.5 3.1 2.8 4.9 3.8 1.4.7 3 1.2 4.6 1.3-3.2.7-6.6-.7-9.6-3.2-2-1.8-3.9-3.7-5.5-5.8 1.4 1.8 2.8 3.6 4 4.9 1.4 1.7 3.1 3.1 5 4.3 1.3.9 2.8 1.4 4.3 1.6-3.1.1-5.9-.9-9-3.7-2-1.8-3.9-3.8-5.7-5.9 1.4 1.8 2.3 2.9 3.3 4.1 1.2 1.4 2.6 2.8 4 4 1.4 1.2 3 2.2 4.7 2.8-3.5-.5-5.8-1.8-9.2-5.2-1-.9-2.4-2.5-4.2-4.6 1.3 1.8 2.2 2.9 3.1 3.9 2 2.6 4.5 4.9 7.3 6.7-3-.7-5.2-2.5-7.4-4.7-1.1-1.2-2.4-2.5-4.4-4.8 1.4 1.9 2.2 3 3 3.8 1.7 2.1 3.5 4.1 5.6 5.9-2.4-1-4.6-2.6-6.3-4.5-1-1.2-1.8-2.1-3.6-4.1"/><path id="Path_405" class="st0" d="M30.8 11c1.6-1.2 3.5-1.8 5.5-1.8 1.4 0 2.8.3 4.1.9 1.8.8 3.3 2 4.5 3.5 1.6-3.3 1.2-7.2-1.2-10S37-.4 33 .1c-2.9.4-5.5 1.7-7.6 3.7.9 1 4.7 6.2 5.4 7.2"/><path id="Path_406" class="st0" d="M62.8 17.1h6.1l-.5-1.3c-.3-.7-1.1-2.6-2.5-5.9l-3.1 7.2zm-5.4 9c3.4-7.5 6.4-14.2 9-20.2h.5c2.7 6.8 5.5 13.5 8.4 20.2-.5-.1-1-.1-1.4-.1-.5 0-1 .1-1.5.1-.7-2.2-1.5-4.4-2.5-6.6l-.5-1.2c-.8 0-2-.1-3.6-.1s-2.8 0-3.6.1c-.9 2.1-1.9 4.6-3 7.7h-.9c-.3 0-.6 0-.9.1"/><path id="Path_407" class="st1" d="M62.8 17.1h6.1l-.5-1.3c-.3-.7-1.1-2.6-2.5-5.9l-3.1 7.2zm-5.4 9c3.4-7.5 6.4-14.2 9-20.2h.5c2.7 6.8 5.5 13.5 8.4 20.2-.5-.1-1-.1-1.4-.1-.5 0-1 .1-1.5.1-.7-2.2-1.5-4.4-2.5-6.6l-.5-1.2c-.8 0-2-.1-3.6-.1s-2.8 0-3.6.1c-.9 2.1-1.9 4.6-3 7.7h-.9c-.3 0-.6 0-.9.1z"/><path id="Path_408" class="st0" d="M86.9 26.2v-.5c0-.3 0-.9-.1-1.8-.9 1.7-2.7 2.8-4.7 2.6-3.1 0-4.6-1.6-4.6-4.8 0-.2 0-1 .1-2.5 0-1.5.1-2.9.1-4.3 0-.6 0-1.4-.1-2.5.4.1.8.1 1.2.1.4 0 .8 0 1.2-.1-.3 2.7-.4 5.4-.4 8.2 0 3 1.1 4.5 3.4 4.5 1.4.1 2.8-.7 3.3-2.1.3-.8.5-3.1.5-7 0-1.2 0-2.4-.1-3.6.4.1.8.1 1.2.1.4 0 .8 0 1.1-.1-.1 1.5-.1 4.2-.1 8.1 0 2.2 0 4.1.1 5.6-.3-.1-.6-.1-.9-.1-.4.1-.8.1-1.2.2"/><path id="Path_409" class="st1" d="M86.9 26.2v-.5c0-.3 0-.9-.1-1.8-.9 1.7-2.7 2.8-4.7 2.6-3.1 0-4.6-1.6-4.6-4.8 0-.2 0-1 .1-2.5 0-1.5.1-2.9.1-4.3 0-.6 0-1.4-.1-2.5.4.1.8.1 1.2.1.4 0 .8 0 1.2-.1-.3 2.7-.4 5.4-.4 8.2 0 3 1.1 4.5 3.4 4.5 1.4.1 2.8-.7 3.3-2.1.3-.8.5-3.1.5-7 0-1.2 0-2.4-.1-3.6.4.1.8.1 1.2.1.4 0 .8 0 1.1-.1-.1 1.5-.1 4.2-.1 8.1 0 2.2 0 4.1.1 5.6-.3-.1-.6-.1-.9-.1-.4.1-.8.1-1.2.2z"/><path id="Path_410" class="st0" d="M93.3 26.1c.1-2.3.1-5.4.1-9.5 0-1.8 0-3.2-.1-4.2.4.1.8.1 1.2.1.4 0 .8 0 1.2-.1-.1 1.1-.2 2.1-.2 3.2 1-2.2 2.3-3.3 3.6-3.3.4 0 .7.1 1.1.1-.1.7-.2 1.4-.1 2.2l-.2.1c-.4-.2-.9-.3-1.4-.3-1-.1-1.9.5-2.3 1.4-.6 1.4-.8 2.9-.7 4.4 0 2.4 0 4.4.1 5.8h-1.2c-.3 0-.7 0-1.1.1"/><path id="Path_411" class="st1" d="M93.3 26.1c.1-2.3.1-5.4.1-9.5 0-1.8 0-3.2-.1-4.2.4.1.8.1 1.2.1.4 0 .8 0 1.2-.1-.1 1.1-.2 2.1-.2 3.2 1-2.2 2.3-3.3 3.6-3.3.4 0 .7.1 1.1.1-.1.7-.2 1.4-.1 2.2l-.2.1c-.4-.2-.9-.3-1.4-.3-1-.1-1.9.5-2.3 1.4-.6 1.4-.8 2.9-.7 4.4 0 2.4 0 4.4.1 5.8h-1.2c-.3 0-.7 0-1.1.1z"/><path id="Path_412" class="st0" d="M108.7 25.5c2.9 0 4.4-2 4.4-6.1 0-4.3-1.5-6.4-4.4-6.4-2.9 0-4.4 2.1-4.4 6.2 0 4.2 1.5 6.3 4.4 6.3m0 .9c-1.9.1-3.6-.7-4.9-2-2.6-2.9-2.6-7.3 0-10.3 2.8-2.6 7.1-2.7 9.9 0 2.6 3 2.6 7.3 0 10.3-1.3 1.3-3.1 2-5 2"/><path id="Path_413" class="st1" d="M108.7 25.5c2.9 0 4.4-2 4.4-6.1 0-4.3-1.5-6.4-4.4-6.4-2.9 0-4.4 2.1-4.4 6.2 0 4.2 1.5 6.3 4.4 6.3zm0 .9c-1.9.1-3.6-.7-4.9-2-2.6-2.9-2.6-7.3 0-10.3 2.8-2.6 7.1-2.7 9.9 0 2.6 3 2.6 7.3 0 10.3-1.3 1.3-3.1 2-5 2z"/><path id="Path_414" class="st0" d="M119 26.1c.1-2.3.1-5.4.1-9.5 0-1.8 0-3.2-.1-4.2.4.1.8.1 1.2.1.4 0 .8 0 1.2-.1-.1 1.1-.2 2.1-.2 3.2 1-2.2 2.3-3.3 3.6-3.3.4 0 .7.1 1.1.1-.1.7-.2 1.4-.1 2.2l-.2.1c-.4-.2-.9-.3-1.4-.3-1-.1-1.9.5-2.3 1.4-.6 1.4-.8 2.9-.7 4.4 0 2.4 0 4.4.1 5.8-.4-.1-.8-.1-1.2-.1-.4.1-.8.1-1.1.2"/><path id="Path_415" class="st1" d="M119 26.1c.1-2.3.1-5.4.1-9.5 0-1.8 0-3.2-.1-4.2.4.1.8.1 1.2.1.4 0 .8 0 1.2-.1-.1 1.1-.2 2.1-.2 3.2 1-2.2 2.3-3.3 3.6-3.3.4 0 .7.1 1.1.1-.1.7-.2 1.4-.1 2.2l-.2.1c-.4-.2-.9-.3-1.4-.3-1-.1-1.9.5-2.3 1.4-.6 1.4-.8 2.9-.7 4.4 0 2.4 0 4.4.1 5.8-.4-.1-.8-.1-1.2-.1-.4.1-.8.1-1.1.2z"/><path id="Path_416" class="st0" d="M135.8 18.9c-1.6.2-3.1.6-4.6 1.2-.9.4-1.5 1.3-1.4 2.3 0 1.8.9 2.8 2.6 2.8 1.1 0 2.2-.5 2.9-1.3.3-.3.5-.8.5-1.2v-3.8zm0 5.5c-1.1 1.2-2.7 1.9-4.3 1.9-2.7 0-4-1.2-4-3.6 0-2 1.1-3.3 3.4-3.8 1.1-.2 2.1-.4 3.2-.6.7-.1 1.3-.3 1.8-.7V17c.1-1-.2-2-.7-2.9-.6-.7-1.6-1-2.5-.9-1.5 0-2.9.7-3.7 2h-.2l.1-1.5c1.3-1.1 3-1.7 4.7-1.6 1.3-.1 2.6.3 3.5 1.2.8 1.1 1.2 2.4 1.1 3.7v.3l-.1 5.8c0 .4 0 .9.1 1.3.2.4.7.6 1.1.6h.5l.1.6c-.8.3-1.6.4-2.4.5-1 0-1.6-.5-1.7-1.7"/><path id="Path_417" class="st1" d="M135.8 18.9c-1.6.2-3.1.6-4.6 1.2-.9.4-1.5 1.3-1.4 2.3 0 1.8.9 2.8 2.6 2.8 1.1 0 2.2-.5 2.9-1.3.3-.3.5-.8.5-1.2v-3.8zm0 5.5c-1.1 1.2-2.7 1.9-4.3 1.9-2.7 0-4-1.2-4-3.6 0-2 1.1-3.3 3.4-3.8 1.1-.2 2.1-.4 3.2-.6.7-.1 1.3-.3 1.8-.7V17c.1-1-.2-2-.7-2.9-.6-.7-1.6-1-2.5-.9-1.5 0-2.9.7-3.7 2h-.2l.1-1.5c1.3-1.1 3-1.7 4.7-1.6 1.3-.1 2.6.3 3.5 1.2.8 1.1 1.2 2.4 1.1 3.7v.3l-.1 5.8c0 .4 0 .9.1 1.3.2.4.7.6 1.1.6h.5l.1.6c-.8.3-1.6.4-2.4.5-1 0-1.6-.5-1.7-1.7z"/><path id="Path_418" class="st0" d="M151.4 26.1c.2-2.3.2-5.9.2-10.7 0-4.2-.1-7.2-.2-9.1.5.1.9.1 1.4.1.4 0 .9 0 1.3-.1-.1.9-.2 3.4-.2 7.4v1.1h12v-1.1c0-2.8-.1-5.2-.3-7.4.5.1.9.1 1.4.1.5 0 .9 0 1.4-.1-.1 2.8-.2 5.8-.2 9.1 0 3 .1 6.6.2 10.7-.4-.1-.9-.1-1.4-.1-.4 0-.9 0-1.3.1.2-2.4.2-5.3.2-8.7V16c-2-.1-4-.1-6-.1s-4 0-6 .1v1.4c0 4.8 0 7.7.1 8.7-.5-.1-.9-.1-1.4-.1-.3 0-.8 0-1.2.1"/><path id="Path_419" class="st1" d="M151.4 26.1c.2-2.3.2-5.9.2-10.7 0-4.2-.1-7.2-.2-9.1.5.1.9.1 1.4.1.4 0 .9 0 1.3-.1-.1.9-.2 3.4-.2 7.4v1.1h12v-1.1c0-2.8-.1-5.2-.3-7.4.5.1.9.1 1.4.1.5 0 .9 0 1.4-.1-.1 2.8-.2 5.8-.2 9.1 0 3 .1 6.6.2 10.7-.4-.1-.9-.1-1.4-.1-.4 0-.9 0-1.3.1.2-2.4.2-5.3.2-8.7V16c-2-.1-4-.1-6-.1s-4 0-6 .1v1.4c0 4.8 0 7.7.1 8.7-.5-.1-.9-.1-1.4-.1-.3 0-.8 0-1.2.1z"/><path id="Path_420" class="st0" d="M174.6 18.1h7.7v-.5c.1-1.2-.3-2.4-1-3.3-.7-.8-1.6-1.2-2.7-1.2s-2.1.5-2.8 1.3c-.8 1.1-1.2 2.4-1.2 3.7m9.2 6.6c-1.4 1.1-3.1 1.7-4.9 1.7-1.9.1-3.6-.6-4.9-2-1.3-1.4-2-3.2-1.9-5.1-.1-1.9.6-3.8 1.8-5.2 1.3-1.3 3-2 4.8-2 1.6-.1 3.2.5 4.3 1.6 1.1 1.3 1.6 3 1.5 4.7v.6h-10v.1c0 4 1.6 6.1 4.9 6.1 1.7 0 3.3-.7 4.5-2 0 .5-.1.9-.1 1.1v.4z"/><path id="Path_421" class="st1" d="M174.6 18.1h7.7v-.5c.1-1.2-.3-2.4-1-3.3-.7-.8-1.6-1.2-2.7-1.2s-2.1.5-2.8 1.3c-.8 1.1-1.3 2.4-1.2 3.7zm9.2 6.6c-1.4 1.1-3.1 1.7-4.9 1.7-1.9.1-3.6-.6-4.9-2-1.3-1.4-2-3.2-1.9-5.1-.1-1.9.6-3.8 1.8-5.2 1.3-1.3 3-2 4.8-2 1.6-.1 3.2.5 4.3 1.6 1.1 1.3 1.6 3 1.5 4.7v.6h-10v.1c0 4 1.6 6.1 4.9 6.1 1.7 0 3.3-.7 4.5-2 0 .5-.1.9-.1 1.1v.4z"/><path id="Path_422" class="st0" d="M195 18.9c-1.6.2-3.1.6-4.6 1.2-.9.4-1.5 1.3-1.4 2.3 0 1.8.9 2.8 2.6 2.8 1.1 0 2.2-.5 2.9-1.3.3-.3.5-.8.5-1.2v-3.8zm0 5.5c-1.1 1.2-2.7 1.9-4.3 1.9-2.7 0-4-1.2-4-3.6 0-2 1.1-3.3 3.4-3.8 1.1-.2 2.1-.4 3.2-.6.7-.1 1.3-.3 1.8-.7V17c.1-1-.2-2-.7-2.9-.6-.7-1.6-1-2.5-.9-1.5 0-2.9.7-3.7 2h-.2l.1-1.5c1.3-1.1 3-1.7 4.7-1.6 1.3-.1 2.6.3 3.5 1.2.8 1.1 1.2 2.4 1.1 3.7v.3l-.1 5.8c0 .4 0 .9.1 1.3.2.4.7.6 1.1.6h.5l.1.6c-.8.3-1.6.4-2.4.5-1 0-1.5-.5-1.7-1.7"/><path id="Path_423" class="st1" d="M195 18.9c-1.6.2-3.1.6-4.6 1.2-.9.4-1.5 1.3-1.4 2.3 0 1.8.9 2.8 2.6 2.8 1.1 0 2.2-.5 2.9-1.3.3-.3.5-.8.5-1.2v-3.8zm0 5.5c-1.1 1.2-2.7 1.9-4.3 1.9-2.7 0-4-1.2-4-3.6 0-2 1.1-3.3 3.4-3.8 1.1-.2 2.1-.4 3.2-.6.7-.1 1.3-.3 1.8-.7V17c.1-1-.2-2-.7-2.9-.6-.7-1.6-1-2.5-.9-1.5 0-2.9.7-3.7 2h-.2l.1-1.5c1.3-1.1 3-1.7 4.7-1.6 1.3-.1 2.6.3 3.5 1.2.8 1.1 1.2 2.4 1.1 3.7v.3l-.1 5.8c0 .4 0 .9.1 1.3.2.4.7.6 1.1.6h.5l.1.6c-.8.3-1.6.4-2.4.5-1 0-1.5-.5-1.7-1.7z"/><path id="Path_424" class="st0" d="M201.8 26.1c.1-1.3.1-4.1.1-8.5V10c0-2.7 0-4.6-.1-5.7h2.4c-.1 1.8-.1 4.8-.1 8.9 0 6.4 0 10.7.1 12.8-.4-.1-.8-.1-1.2-.1-.5.1-.8.2-1.2.2"/><path id="Path_425" class="st1" d="M201.8 26.1c.1-1.3.1-4.1.1-8.5V10c0-2.7 0-4.6-.1-5.7h2.4c-.1 1.8-.1 4.8-.1 8.9 0 6.4 0 10.7.1 12.8-.4-.1-.8-.1-1.2-.1-.5.1-.8.2-1.2.2z"/><path id="Path_426" class="st0" d="M206.7 13.7c0-.3.1-.6.1-.8v-.4c.6.1 1.2.1 1.8.1V9.1c.8-.1 1.6-.4 2.3-.7-.1 1.2-.1 2-.1 2.3v1.9c1.1 0 2.3-.1 3.8-.2-.1.3-.1.7-.1 1v.2c-1-.1-1.9-.1-2.7-.1h-1l-.1 1.5c0 .6 0 1.6-.1 3.1s-.1 2.7-.1 3.7c-.1 1 .1 1.9.5 2.8.4.6 1.1.9 1.9.9.7-.1 1.4-.3 2-.6l.2.6c-.9.6-2 1-3.2 1-1 .1-2.1-.2-2.8-.9-.6-.9-.9-2-.8-3 0-.3 0-1.3.1-3.1 0-1.7.1-3.4.1-4.8v-1h-.3c-.5-.1-1-.1-1.5 0"/><path id="Path_427" class="st1" d="M206.7 13.7c0-.3.1-.6.1-.8v-.4c.6.1 1.2.1 1.8.1V9.1c.8-.1 1.6-.4 2.3-.7-.1 1.2-.1 2-.1 2.3v1.9c1.1 0 2.3-.1 3.8-.2-.1.3-.1.7-.1 1v.2c-1-.1-1.9-.1-2.7-.1h-1l-.1 1.5c0 .6 0 1.6-.1 3.1s-.1 2.7-.1 3.7c-.1 1 .1 1.9.5 2.8.4.6 1.1.9 1.9.9.7-.1 1.4-.3 2-.6l.2.6c-.9.6-2 1-3.2 1-1 .1-2.1-.2-2.8-.9-.6-.9-.9-2-.8-3 0-.3 0-1.3.1-3.1 0-1.7.1-3.4.1-4.8v-1h-.3c-.5-.1-1-.1-1.5 0z"/><path id="Path_428" class="st0" d="M216.9 26.1c.1-4.4.1-8 .1-10.9 0-3.4 0-7.1-.1-10.9.4.1.8.1 1.2.1.4 0 .8 0 1.2-.1-.1 2.2-.1 4.3-.1 6.5 0 .8 0 2.1.1 4 .9-1.6 2.6-2.6 4.5-2.6 3.1 0 4.6 1.7 4.6 5v4.4c0 .4 0 1.8.1 4.4-.4-.1-.8-.1-1.2-.1-.4 0-.8.1-1.2.1.1-3.5.1-6.1.1-7.7.1-1.3-.2-2.5-.8-3.6-.6-.8-1.6-1.2-2.6-1.1-1.3-.1-2.6.7-3.1 1.9-.4.8-.6 2.5-.6 5.1v2.1c0 .7 0 1.8.1 3.4-.4-.1-.8-.1-1.2-.1-.3 0-.7 0-1.1.1"/><path id="Path_429" class="st1" d="M216.9 26.1c.1-4.4.1-8 .1-10.9 0-3.4 0-7.1-.1-10.9.4.1.8.1 1.2.1.4 0 .8 0 1.2-.1-.1 2.2-.1 4.3-.1 6.5 0 .8 0 2.1.1 4 .9-1.6 2.6-2.6 4.5-2.6 3.1 0 4.6 1.7 4.6 5v4.4c0 .4 0 1.8.1 4.4-.4-.1-.8-.1-1.2-.1-.4 0-.8.1-1.2.1.1-3.5.1-6.1.1-7.7.1-1.3-.2-2.5-.8-3.6-.6-.8-1.6-1.2-2.6-1.1-1.3-.1-2.6.7-3.1 1.9-.4.8-.6 2.5-.6 5.1v2.1c0 .7 0 1.8.1 3.4-.4-.1-.8-.1-1.2-.1-.3 0-.7 0-1.1.1z"/><path id="Path_430" class="st0" d="M256.3 24.9c-1.5 1.1-3.6 1.6-6.5 1.6-3.2 0-5.7-.9-7.5-2.7-1.8-1.8-2.7-4.3-2.7-7.6-.1-2.8.9-5.5 2.9-7.5 2.1-1.9 5-3 7.8-2.8 2.2 0 4.3.4 6.2 1.4-.3.9-.5 1.8-.5 2.8-1.2-2-3.5-3.2-5.9-3.1-2.2-.1-4.2.8-5.7 2.4-1.5 2-2.2 4.4-2 6.8-.1 2.4.6 4.8 2 6.7 1.3 1.6 3.4 2.5 5.5 2.4 2.3 0 4.6-.9 6.3-2.4l.1 2z"/><path id="Path_431" class="st1" d="M256.3 24.9c-1.5 1.1-3.6 1.6-6.5 1.6-3.2 0-5.7-.9-7.5-2.7-1.8-1.8-2.7-4.3-2.7-7.6-.1-2.8.9-5.5 2.9-7.5 2.1-1.9 5-3 7.8-2.8 2.2 0 4.3.4 6.2 1.4-.3.9-.5 1.8-.5 2.8-1.2-2-3.5-3.2-5.9-3.1-2.2-.1-4.2.8-5.7 2.4-1.5 2-2.2 4.4-2 6.8-.1 2.4.6 4.8 2 6.7 1.3 1.6 3.4 2.5 5.5 2.4 2.3 0 4.6-.9 6.3-2.4l.1 2z"/><path id="Path_432" class="st0" d="M266.9 18.9c-1.6.2-3.1.6-4.6 1.2-.9.4-1.5 1.3-1.4 2.3 0 1.8.9 2.8 2.6 2.8 1.1 0 2.2-.5 2.9-1.3.3-.3.5-.8.5-1.2v-3.8zm0 5.5c-1.1 1.2-2.7 1.9-4.3 1.9-2.7 0-4-1.2-4-3.6 0-2 1.1-3.3 3.4-3.8 1.1-.2 2.1-.4 3.2-.6.7-.1 1.3-.3 1.8-.7V17c.1-1-.2-2-.7-2.9-.6-.7-1.6-1-2.5-.9-1.5 0-2.9.7-3.7 2h-.2l.1-1.5c1.3-1.1 3-1.7 4.7-1.6 1.3-.1 2.6.3 3.5 1.2.8 1.1 1.2 2.4 1.1 3.7v.3l-.1 5.8c0 .4 0 .9.1 1.3.2.4.7.6 1.1.6h.5l.1.6c-.8.3-1.6.4-2.4.5-1 0-1.5-.5-1.7-1.7"/><path id="Path_433" class="st1" d="M266.9 18.9c-1.6.2-3.1.6-4.6 1.2-.9.4-1.5 1.3-1.4 2.3 0 1.8.9 2.8 2.6 2.8 1.1 0 2.2-.5 2.9-1.3.3-.3.5-.8.5-1.2v-3.8zm0 5.5c-1.1 1.2-2.7 1.9-4.3 1.9-2.7 0-4-1.2-4-3.6 0-2 1.1-3.3 3.4-3.8 1.1-.2 2.1-.4 3.2-.6.7-.1 1.3-.3 1.8-.7V17c.1-1-.2-2-.7-2.9-.6-.7-1.6-1-2.5-.9-1.5 0-2.9.7-3.7 2h-.2l.1-1.5c1.3-1.1 3-1.7 4.7-1.6 1.3-.1 2.6.3 3.5 1.2.8 1.1 1.2 2.4 1.1 3.7v.3l-.1 5.8c0 .4 0 .9.1 1.3.2.4.7.6 1.1.6h.5l.1.6c-.8.3-1.6.4-2.4.5-1 0-1.5-.5-1.7-1.7z"/><path id="Path_434" class="st0" d="M273.6 26.1c.1-2.3.1-5.4.1-9.5 0-1.8 0-3.2-.1-4.2.4.1.8.1 1.2.1.4 0 .8 0 1.2-.1-.1 1.1-.2 2.1-.2 3.2 1-2.2 2.3-3.3 3.6-3.3.4 0 .7.1 1.1.1-.1.7-.2 1.4-.1 2.2l-.2.1c-.4-.2-.9-.3-1.4-.3-1-.1-1.9.5-2.3 1.4-.6 1.4-.8 2.9-.7 4.4 0 2.4 0 4.4.1 5.8-.4-.1-.8-.1-1.2-.1-.3.1-.7.1-1.1.2"/><path id="Path_435" class="st1" d="M273.6 26.1c.1-2.3.1-5.4.1-9.5 0-1.8 0-3.2-.1-4.2.4.1.8.1 1.2.1.4 0 .8 0 1.2-.1-.1 1.1-.2 2.1-.2 3.2 1-2.2 2.3-3.3 3.6-3.3.4 0 .7.1 1.1.1-.1.7-.2 1.4-.1 2.2l-.2.1c-.4-.2-.9-.3-1.4-.3-1-.1-1.9.5-2.3 1.4-.6 1.4-.8 2.9-.7 4.4 0 2.4 0 4.4.1 5.8-.4-.1-.8-.1-1.2-.1-.3.1-.7.1-1.1.2z"/><path id="Path_436" class="st0" d="M284.6 18.1h7.7v-.5c.1-1.2-.3-2.4-1-3.3-.7-.8-1.6-1.2-2.7-1.2s-2.1.5-2.8 1.3c-.8 1.1-1.2 2.4-1.2 3.7m9.2 6.6c-1.4 1.1-3.1 1.7-4.9 1.7-1.9.1-3.6-.6-4.9-2-1.3-1.4-2-3.2-1.9-5.1-.1-1.9.6-3.8 1.8-5.2 1.3-1.3 3-2 4.8-2 1.6-.1 3.2.5 4.3 1.6 1.1 1.3 1.6 3 1.5 4.7v.6h-10v.1c0 4 1.6 6.1 4.9 6.1 1.7 0 3.3-.7 4.5-2 0 .5-.1.9-.1 1.1v.4z"/><path id="Path_437" class="st1" d="M284.6 18.1h7.7v-.5c.1-1.2-.3-2.4-1-3.3-.7-.8-1.6-1.2-2.7-1.2s-2.1.5-2.8 1.3c-.8 1.1-1.2 2.4-1.2 3.7zm9.2 6.6c-1.4 1.1-3.1 1.7-4.9 1.7-1.9.1-3.6-.6-4.9-2-1.3-1.4-2-3.2-1.9-5.1-.1-1.9.6-3.8 1.8-5.2 1.3-1.3 3-2 4.8-2 1.6-.1 3.2.5 4.3 1.6 1.1 1.3 1.6 3 1.5 4.7v.6h-10v.1c0 4 1.6 6.1 4.9 6.1 1.7 0 3.3-.7 4.5-2 0 .5-.1.9-.1 1.1v.4z"/><path id="Path_438" class="st0" d="M297.7 13.3v.7h.3c.4 0 .5-.1.5-.4s-.2-.4-.6-.4h-.2zm-.5-.3h.9c.7 0 1 .2 1 .6 0 .3-.2.6-.5.6l.5 1.1h-.6l-.5-1h-.4v1h-.5l.1-2.3zm.9-.6c-.5 0-.9.2-1.2.5-.4.3-.5.8-.5 1.3s.2.9.5 1.3c.3.3.8.5 1.2.5.5 0 .9-.2 1.3-.5.3-.3.5-.8.5-1.2 0-.5-.2-.9-.5-1.3-.4-.4-.8-.6-1.3-.6m0-.3c1.2 0 2.1.9 2.1 2.1 0 .6-.2 1.1-.6 1.5-.4.4-.9.6-1.5.6s-1.1-.2-1.5-.6c-.8-.8-.8-2.1 0-2.9.4-.5.9-.7 1.5-.7"/></g></g></svg>