<?xml version="1.0" encoding="utf-8"?>
<!-- Generator: Adobe Illustrator 27.0.0, SVG Export Plug-In . SVG Version: 6.00 Build 0)  -->
<svg version="1.1" id="Layer_1" xmlns="http://www.w3.org/2000/svg" xmlns:xlink="http://www.w3.org/1999/xlink" x="0px" y="0px"
	 viewBox="0 0 298.7 37.7" style="enable-background:new 0 0 298.7 37.7;" xml:space="preserve">
<style type="text/css">
	.st0{fill:#FFFFFF;}
</style>
<g id="Advocate_horizontal_no_tagline">
	<g id="Group_2651">
		<g id="Group_2650">
			<g id="Group_2649">
				<g id="Group_2648">
					<path id="Path_249" class="st0" d="M26.1,12.3V0H13.2v12.3H0v12.8h13.2v12.6h1.4c0-0.2,0.5-2.5,1.1-5.2
						c1-4.7,2.3-10.9,2.3-11.2c0.3-1.1-0.1-1.6-1.2-1.6c-0.5,0-12.1-0.8-12.4-0.8c-0.5,0-0.4-0.1,0.1-0.2c0.2,0,12.6-0.8,12.9-0.8
						l0,0c1,0,1.8-0.6,2-1.6l0,0c0.2-0.8,3.5-11.5,3.6-11.9c0.2-0.7,0.4-0.7,0.2,0c-0.1,0.5-1.9,11.4-2,11.9c-0.3,1.1,0,1.6,1,1.6
						c0.5,0,11.8,0.8,12.1,0.8c1,0,0.9,0.2,0,0.2c-1.2,0-11.9,0.8-12.3,0.8h0c-1,0-1.8,0.7-2,1.6h0c-0.3,1-1.9,6.8-3.1,11.2
						c-0.8,2.8-1.2,5.1-1.3,5.2h10.4V25.1h13.1V12.3H26.1L26.1,12.3z"/>
				</g>
			</g>
		</g>
		<path id="Path_250" class="st0" d="M46.8,25.6c0.3,0,0.5,0,0.8,0.1l0.3,0.1l0.1-0.3c1-2.8,1.9-5.2,2.7-7.1c0.7,0,1.8,0,3.2,0
			s2.4,0,3.1,0l0.4,0.9c0.9,2.1,1.7,4.1,2.3,6.2l0.1,0.3l0.3,0c0.9-0.2,1.8-0.2,2.6,0l0.6,0.1l-0.2-0.6c-2.7-6.3-5.4-12.7-8-19.1
			L55.1,6h-1l-0.1,0.2c-2.4,5.6-5.2,12-8.5,19.1l-0.3,0.6l0.7-0.1C46.3,25.7,46.5,25.6,46.8,25.6L46.8,25.6z M51.5,16.6L54,11
			c1.1,2.7,1.8,4.3,2,4.9l0.3,0.7L51.5,16.6L51.5,16.6z"/>
		<path id="Path_251" class="st0" d="M69,26c1.7,0.1,3.3-0.7,4.3-2.1v1.9l0.4-0.1c0.7-0.2,1.4-0.2,2.2,0l0.4,0.1v-0.4
			c-0.1-3.5-0.2-7.4-0.2-11.8c0-3.7,0-6.6,0.1-8.8V4.4l-0.4,0.1c-0.7,0.2-1.4,0.2-2.2,0l-0.4-0.1v0.5c0.1,1.6,0.1,3.2,0.1,4.9v1.9
			c0,0.7,0,1.4,0,2c-1-1.2-2.5-1.9-4-1.8c-1.7,0-3.3,0.7-4.4,2c-1.2,1.5-1.8,3.4-1.7,5.2c-0.1,1.8,0.5,3.5,1.6,4.9
			C65.8,25.4,67.4,26,69,26L69,26z M69.6,24.3c-1,0-1.9-0.5-2.5-1.3c-0.7-1.2-1-2.5-0.9-3.9c-0.1-1.4,0.3-2.9,1-4.1
			c0.6-0.9,1.6-1.4,2.7-1.4c1-0.1,2,0.4,2.6,1.2c0.7,1.1,1,2.4,0.9,3.7c0.1,1.5-0.3,3-1,4.3C71.7,23.8,70.7,24.3,69.6,24.3
			L69.6,24.3z"/>
		<path id="Path_252" class="st0" d="M82.7,25.5l0.1,0.2h2.1l0.1-0.2c0.7-2,2.5-6.4,5.4-12.9l0.3-0.7L90,12.2c-0.5,0.1-1,0.1-1.5,0
			l-0.3-0.1L88,12.4c-0.9,3.3-2.2,6.6-3.7,9.7c-1.5-3.1-2.7-6.4-3.7-9.7l-0.1-0.3l-0.3,0.1c-0.8,0.1-1.6,0.1-2.4,0L77.2,12l0.3,0.6
			C80.2,18.8,82,23.1,82.7,25.5L82.7,25.5z"/>
		<path id="Path_253" class="st0" d="M92.1,24c2.8,2.6,7.1,2.6,9.8,0c1.3-1.4,2-3.2,1.9-5.1c0.1-1.9-0.6-3.7-1.9-5.1
			c-2.8-2.6-7.1-2.6-9.8,0C89.5,16.8,89.5,21.1,92.1,24L92.1,24z M97,13.4c2.6,0,3.8,1.9,3.8,5.7c0,3.6-1.2,5.4-3.8,5.4
			s-3.8-1.8-3.8-5.6C93.2,15.2,94.4,13.4,97,13.4L97,13.4L97,13.4z"/>
		<path id="Path_254" class="st0" d="M111.7,26c1.8,0.1,3.5-0.4,4.9-1.4l0.2-0.1l0-0.2c0-0.2,0-0.3,0-0.5c0-0.2,0-0.5,0.1-1l0.1-0.9
			l-0.7,0.7c-1,1.1-2.4,1.8-3.9,1.9c-1.2,0-2.4-0.5-3.2-1.4c-0.9-1.1-1.3-2.6-1.2-4c-0.1-1.5,0.3-2.9,1.1-4.1
			c0.7-0.9,1.9-1.5,3.1-1.4c1.5,0,2.9,0.9,3.4,2.4l0.4,0.9l0.2-1c0.2-0.8,0.4-1.6,0.7-2.3l0.1-0.3l-0.3-0.1c-1.4-0.7-3-1.1-4.6-1.1
			c-1.9-0.1-3.8,0.6-5.2,1.9c-1.3,1.4-2.1,3.2-2,5.2c-0.1,1.9,0.6,3.7,1.9,5.1C108.1,25.4,109.9,26.1,111.7,26L111.7,26z"/>
		<path id="Path_255" class="st0" d="M121.8,26c1.4,0,2.8-0.5,3.9-1.5c0.2,0.8,0.9,1.3,1.7,1.3c0.8,0,1.6-0.2,2.4-0.5l0.3-0.1
			l-0.2-1.1h-0.7c-0.5,0-0.7-0.2-0.8-0.3c-0.1-0.4-0.1-0.7-0.1-1.1l0.1-5.4v-0.3c0.1-1.3-0.3-2.7-1.1-3.7c-1-0.9-2.3-1.3-3.6-1.2
			c-1.7,0-3.3,0.5-4.6,1.6l-0.1,0.1l-0.1,2h0.8l0.1-0.1c0.7-1.1,1.9-1.8,3.2-1.8c0.8-0.1,1.5,0.2,2.1,0.8c0.5,0.7,0.7,1.6,0.6,2.5
			v0.4c-0.4,0.2-0.9,0.4-1.4,0.5c-1,0.2-2,0.4-3.1,0.6c-2.3,0.5-3.4,1.8-3.4,3.9C117.7,24,118.4,26,121.8,26L121.8,26z M122.7,24.2
			c-1.4,0-2.1-0.7-2.1-2.3c-0.1-0.8,0.4-1.6,1.2-1.9c1.2-0.5,2.5-0.8,3.8-1v3.1c0,0.4-0.1,0.7-0.4,0.9
			C124.6,23.8,123.7,24.2,122.7,24.2L122.7,24.2L122.7,24.2z"/>
		<path id="Path_256" class="st0" d="M131.4,13.9v0.6c0,1.4,0,2.9-0.1,4.6s-0.1,2.6-0.1,2.9c-0.1,1.1,0.2,2.2,0.9,3.1
			c0.8,0.7,1.9,1.1,2.9,1c1.1,0,2.2-0.4,3.2-1l0.2-0.1l-0.4-1.2l-0.4,0.2c-0.6,0.3-1.1,0.5-1.8,0.5c-0.6,0.1-1.1-0.2-1.5-0.6
			c-0.4-0.8-0.5-1.6-0.5-2.5c0-0.9,0-2,0.1-3.4c0-1.4,0.1-2.4,0.1-2.9l0-1.1c0.2,0,0.4,0,0.7,0c0.7,0,1.5,0,2.5,0.1l0.4,0v-0.6
			c0-0.3,0-0.6,0.1-0.9l0.1-0.4l-0.4,0c-1.2,0.1-2.3,0.1-3.2,0.2v-1.5c0-0.3,0-1,0.1-2.1l0-0.6l-0.5,0.3c-0.7,0.3-1.4,0.5-2.1,0.6
			l-0.3,0.1v3.2c-0.4,0-0.9,0-1.3-0.1l-0.4,0v0.4c0,0.1,0,0.1,0,0.2V13c0,0.1,0,0.4-0.1,0.7l-0.1,0.4L130,14
			C130.5,14,130.9,13.9,131.4,13.9L131.4,13.9z"/>
		<path id="Path_257" class="st0" d="M144.7,26c1.8,0,3.5-0.6,4.9-1.6l0.1-0.1v-0.5c0-0.2,0-0.5,0.1-1l0.1-0.9l-0.6,0.6
			c-1,1.1-2.5,1.8-4,1.8c-2.8,0-4.2-1.6-4.3-5.1h9.4v-0.3c0-0.1,0-0.2,0-0.3v-0.3c0.1-1.7-0.4-3.4-1.5-4.7c-1.1-1.1-2.7-1.8-4.3-1.7
			c-1.8-0.1-3.6,0.6-4.8,2c-1.2,1.4-1.9,3.3-1.8,5.2c-0.1,1.9,0.6,3.7,1.9,5.1C141.1,25.4,142.9,26.1,144.7,26L144.7,26z
			 M144.4,13.4c0.9,0,1.7,0.3,2.3,1c0.6,0.9,0.9,1.9,0.9,2.9v0.1h-6.6c0.1-1.1,0.4-2.1,1.1-2.9C142.6,13.8,143.4,13.4,144.4,13.4
			L144.4,13.4L144.4,13.4z"/>
		<path id="Path_258" class="st0" d="M160.7,25.9l0.4-0.1c0.8-0.1,1.6-0.1,2.4,0l0.4,0.1l0-0.5c-0.1-1-0.1-3.7-0.1-8.2v-1
			c3.6-0.1,7.1-0.1,10.6,0v1c0,3.1-0.1,5.9-0.2,8.2l0,0.4l0.4-0.1c0.8-0.1,1.6-0.1,2.5,0l0.4,0.1l0-0.4c-0.1-3.9-0.2-7.2-0.2-10.1
			c0-3.1,0.1-6,0.2-8.6l0-0.4l-0.4,0.1c-0.8,0.1-1.6,0.1-2.5,0l-0.4-0.1l0,0.4c0.2,2,0.2,4.3,0.2,6.9v0.7c-1.2,0-3,0-5.3,0
			c-2.3,0-4.1,0-5.3,0v-0.7c0-3.7,0.1-6,0.2-6.9l0.1-0.5l-0.5,0.1c-0.8,0.1-1.6,0.1-2.4,0l-0.4-0.1l0,0.4c0.1,1.8,0.2,4.7,0.2,8.6
			c0,4.5-0.1,7.9-0.2,10.1L160.7,25.9L160.7,25.9z"/>
		<path id="Path_259" class="st0" d="M186.6,26c1.8,0,3.5-0.6,4.9-1.6l0.1-0.1v-0.5c0-0.2,0-0.5,0.1-1l0.1-0.9l-0.6,0.6
			c-1,1.1-2.5,1.8-4,1.8c-2.8,0-4.2-1.6-4.3-5.1h9.4v-0.3c0-0.1,0-0.2,0-0.3v-0.3c0.1-1.7-0.4-3.4-1.5-4.7c-1.1-1.1-2.7-1.8-4.3-1.7
			c-1.8-0.1-3.6,0.6-4.8,2c-1.2,1.4-1.9,3.3-1.8,5.2c-0.1,1.9,0.6,3.7,1.9,5.1C183,25.4,184.8,26.1,186.6,26L186.6,26z M186.3,13.4
			c0.9,0,1.7,0.3,2.3,1c0.6,0.9,0.9,1.9,0.9,2.9v0.1h-6.6c0.1-1.1,0.4-2.1,1.1-2.9C184.5,13.8,185.4,13.4,186.3,13.4L186.3,13.4
			L186.3,13.4z"/>
		<path id="Path_260" class="st0" d="M197.3,26c1.4,0,2.8-0.5,3.9-1.5c0.2,0.8,0.9,1.3,1.7,1.3c0.8,0,1.6-0.2,2.4-0.5l0.3-0.1
			l-0.2-1.1h-0.7c-0.5,0-0.7-0.2-0.8-0.3c-0.1-0.4-0.1-0.7-0.1-1.1l0.1-5.4v-0.3c0.1-1.3-0.3-2.7-1.1-3.7c-1-0.9-2.3-1.3-3.6-1.2
			c-1.7,0-3.3,0.5-4.6,1.6l-0.1,0.1l-0.1,2h0.8l0.1-0.1c0.7-1.1,1.9-1.8,3.2-1.8c0.8-0.1,1.5,0.2,2.1,0.8c0.5,0.7,0.7,1.6,0.6,2.5
			v0.4c-0.4,0.2-0.9,0.4-1.4,0.5c-1,0.2-2,0.4-3.1,0.6c-2.3,0.5-3.4,1.8-3.4,3.9C193.2,24,193.9,26,197.3,26z M198.2,24.2
			c-1.4,0-2.1-0.7-2.1-2.3c-0.1-0.8,0.4-1.6,1.2-1.9c1.2-0.5,2.5-0.8,3.8-1v3.1c0,0.4-0.1,0.7-0.4,0.9
			C200,23.8,199.1,24.2,198.2,24.2L198.2,24.2L198.2,24.2z"/>
		<path id="Path_261" class="st0" d="M207,10.2v7.2c0,4.1,0,6.8-0.1,8l0,0.4l0.4-0.1c0.7-0.1,1.5-0.1,2.2,0l0.4,0.1l0-0.4
			c-0.1-2-0.1-6-0.1-12.1c0-3.9,0-6.8,0.1-8.4l0-0.4h-3l0,0.4C207,5.9,207,7.7,207,10.2L207,10.2z"/>
		<path id="Path_262" class="st0" d="M212.9,13.9v0.6c0,1.4,0,2.9-0.1,4.6s-0.1,2.6-0.1,2.9c-0.1,1.1,0.2,2.2,0.9,3.1
			c0.8,0.7,1.9,1.1,2.9,1c1.1,0,2.2-0.4,3.2-1l0.2-0.1l-0.4-1.2l-0.4,0.2c-0.6,0.3-1.1,0.5-1.8,0.5c-0.6,0.1-1.1-0.2-1.5-0.6
			c-0.4-0.8-0.5-1.6-0.5-2.5c0-0.9,0-2,0.1-3.4c0-1.4,0.1-2.4,0.1-2.9l0-1.1c0.2,0,0.4,0,0.7,0c0.7,0,1.5,0,2.5,0.1l0.4,0v-0.6
			c0-0.3,0-0.6,0.1-0.9l0.1-0.4l-0.4,0c-1.2,0.1-2.3,0.1-3.2,0.2v-1.5c0-0.3,0-1,0.1-2.1l0-0.6l-0.5,0.3c-0.7,0.3-1.4,0.5-2.1,0.6
			l-0.3,0.1v3.2c-0.4,0-0.9,0-1.3-0.1l-0.4,0v0.4c0,0.1,0,0.1,0,0.2V13c0,0.1,0,0.4-0.1,0.7l0,0.4l0.4-0.1
			C212,14,212.4,13.9,212.9,13.9L212.9,13.9z"/>
		<path id="Path_263" class="st0" d="M220.8,25.9l0.4-0.1c0.7-0.2,1.4-0.2,2.1,0l0.4,0.1l0-0.4c-0.1-1.5-0.1-2.5-0.1-3.2v-1.9
			c0-3.1,0.3-4.2,0.5-4.7c0.5-1,1.5-1.7,2.6-1.6c0.8-0.1,1.6,0.3,2.1,0.9c0.5,1,0.7,2.1,0.7,3.3c0,1.5,0,3.9-0.1,7.3v0.4l0.4-0.1
			c0.7-0.2,1.4-0.2,2.1,0l0.4,0.1v-0.4c-0.1-2.3-0.1-3.8-0.1-4.2c0-0.6,0-1.3,0-2.3s0-1.6,0-1.9c0-3.3-1.6-5.1-4.7-5.1
			c-1.5,0-3,0.7-3.9,1.9c0-1.2,0-2.2,0-2.8c0-2.1,0-4.1,0.1-6.1V4.5l-0.4,0.1c-0.4,0.1-0.7,0.1-1.1,0.1c-0.4,0-0.7-0.1-1.1-0.1
			l-0.4-0.1v0.4c0.1,3.6,0.1,7,0.1,10.3c0,2.7,0,6.2-0.1,10.3V25.9L220.8,25.9z"/>
		<path id="Path_264" class="st0" d="M252.3,26.1c2.2,0.1,4.5-0.4,6.3-1.6l0.1-0.1l0.2-2.8l-0.6,0.5c-1.6,1.4-3.6,2.2-5.8,2.2
			c-1.9,0.1-3.7-0.7-4.9-2.2c-1.3-1.8-2-3.9-1.8-6.1c-0.1-2.2,0.5-4.4,1.8-6.2c1.3-1.5,3.1-2.3,5.1-2.2c2.1-0.1,4.1,1,5.2,2.8l0.6,1
			v-1.1c0-0.9,0.1-1.7,0.4-2.5l0.1-0.3l-0.3-0.1C257,6.4,255,6,252.9,6c-2.8-0.1-5.6,0.9-7.6,2.8c-1.9,1.9-3,4.6-2.9,7.3
			c-0.2,2.7,0.8,5.4,2.6,7.4C247,25.3,249.6,26.3,252.3,26.1L252.3,26.1z"/>
		<path id="Path_265" class="st0" d="M264.2,26c1.4,0,2.8-0.5,3.9-1.5c0.2,0.8,0.9,1.3,1.7,1.3c0.8,0,1.6-0.2,2.4-0.5l0.3-0.1
			l-0.2-1.1h-0.7c-0.5,0-0.7-0.2-0.8-0.3c-0.1-0.4-0.1-0.7-0.1-1.1l0.1-5.4v-0.3c0.1-1.3-0.3-2.7-1.1-3.7c-1-0.9-2.3-1.3-3.6-1.2
			c-1.7,0-3.3,0.5-4.6,1.6l-0.1,0.1l-0.1,2h0.8l0.1-0.1c0.7-1.1,1.9-1.8,3.2-1.8c0.8-0.1,1.5,0.2,2.1,0.8c0.5,0.7,0.7,1.6,0.6,2.5
			v0.4c-0.5,0.2-0.9,0.4-1.5,0.5c-1,0.2-2,0.4-3,0.6c-2.3,0.5-3.5,1.8-3.5,3.9C260.1,24,260.8,26,264.2,26L264.2,26z M265.1,24.2
			c-1.4,0-2.1-0.7-2.1-2.3c0-0.8,0.4-1.6,1.2-1.9c1.2-0.5,2.5-0.8,3.8-1v3.1c0,0.4-0.1,0.7-0.4,0.9C267,23.8,266.1,24.2,265.1,24.2
			L265.1,24.2z"/>
		<path id="Path_266" class="st0" d="M274,16.5c0,3.8,0,6.8-0.1,8.9l0,0.4l0.4-0.1c0.7-0.1,1.4-0.1,2.1,0l0.4,0.1l0-0.5
			c-0.1-1.4-0.1-3.1-0.1-5.5c-0.1-1.4,0.1-2.8,0.6-4c0.3-0.7,1.1-1.2,1.9-1.1c0.4,0,0.8,0.1,1.2,0.3l0.2,0.1l0.5-0.3v-0.2
			c0-0.7,0-1.3,0.1-2l0.1-0.3l-0.3-0.1c-0.4-0.1-0.7-0.1-1.1-0.1c-1.3,0.1-2.5,0.9-3.1,2.1c0-0.6,0.1-1.1,0.1-1.6l0.1-0.5l-0.5,0.1
			c-0.7,0.1-1.5,0.1-2.2,0l-0.5-0.1l0,0.4C274,13.5,274,14.8,274,16.5L274,16.5z"/>
		<path id="Path_267" class="st0" d="M288.2,26c1.8,0,3.5-0.6,4.9-1.6l0.1-0.1v-0.5c0-0.2,0-0.5,0-1l0.1-0.9l-0.6,0.6
			c-1,1.1-2.5,1.8-4,1.8c-2.8,0-4.2-1.6-4.3-5.1h9.4v-0.3c0-0.1,0-0.2,0-0.3v-0.3c0.1-1.7-0.4-3.4-1.5-4.7c-1.1-1.1-2.7-1.8-4.3-1.7
			c-1.8-0.1-3.6,0.6-4.8,2c-1.2,1.4-1.9,3.3-1.8,5.2c-0.1,1.9,0.6,3.7,1.9,5.1C284.6,25.4,286.4,26.1,288.2,26L288.2,26z M288,13.4
			c0.9,0,1.7,0.3,2.3,1c0.6,0.9,0.9,1.9,0.9,2.9v0.1h-6.6c0-1.1,0.4-2.1,1.1-2.9C286.1,13.8,287,13.4,288,13.4L288,13.4L288,13.4z"
			/>
		<path id="Path_268" class="st0" d="M296.5,14.6h0.5l0.5,0.9h0.4l-0.5-1c0.1,0,0.3-0.1,0.4-0.2c0.1-0.1,0.1-0.2,0.1-0.4
			c0-0.4-0.3-0.6-0.9-0.6h-0.8v2.1h0.3L296.5,14.6L296.5,14.6z M296.5,13.6h0.4c0.4,0,0.6,0.1,0.6,0.4c0,0.1,0,0.2-0.1,0.3
			c-0.1,0.1-0.3,0.1-0.5,0.1h-0.4L296.5,13.6L296.5,13.6z"/>
		<path id="Path_269" class="st0" d="M296.9,16.3c0.5,0,1-0.2,1.3-0.6c0.4-0.3,0.5-0.8,0.5-1.3c0-1-0.8-1.8-1.8-1.8c0,0,0,0,0,0
			c-0.5,0-1,0.2-1.3,0.5c-0.4,0.3-0.5,0.8-0.5,1.3c0,0.5,0.2,1,0.5,1.3C295.9,16.1,296.4,16.3,296.9,16.3L296.9,16.3z M295.7,13.3
			c0.3-0.3,0.7-0.5,1.1-0.5c0.9,0,1.6,0.7,1.6,1.6c0,0,0,0,0,0c0,0.4-0.2,0.9-0.5,1.1c-0.3,0.3-0.7,0.5-1.2,0.5
			c-0.9,0-1.6-0.7-1.6-1.6C295.2,14,295.4,13.6,295.7,13.3L295.7,13.3L295.7,13.3z"/>
	</g>
</g>
</svg>
